<?xml version="1.0" encoding="UTF-8"?>
<!--Generator: Apple Native CoreSVG 123-->
<!DOCTYPE svg
PUBLIC "-//W3C//DTD SVG 1.1//EN"
       "http://www.w3.org/Graphics/SVG/1.1/DTD/svg11.dtd">
<svg version="1.1" xmlns="http://www.w3.org/2000/svg" xmlns:xlink="http://www.w3.org/1999/xlink" width="3300" height="2200">
 <!--glyph: "uni1003A2.medium", point size: 100.000000, font version: "Version 15.0d7e11", template writer version: "5"-->
 <g id="Notes">
  <rect height="2200" id="artboard" style="fill:white;opacity:1" width="3300" x="0" y="0"/>
  <line id="" style="fill:none;stroke:black;opacity:1;stroke-width:0.5;" x1="263" x2="3036" y1="292" y2="292"/>
  <text style="stroke:none;fill:black;font-family:-apple-system,&quot;SF Pro Display&quot;,&quot;SF Pro Text&quot;,Helvetica,sans-serif;font-weight:bold;" transform="matrix(1 0 0 1 263 322)">Weight/Scale Variations</text>
  <text style="stroke:none;fill:black;font-family:-apple-system,&quot;SF Pro Display&quot;,&quot;SF Pro Text&quot;,Helvetica,sans-serif;text-anchor:middle;" transform="matrix(1 0 0 1 559.711 322)">Ultralight</text>
  <text style="stroke:none;fill:black;font-family:-apple-system,&quot;SF Pro Display&quot;,&quot;SF Pro Text&quot;,Helvetica,sans-serif;text-anchor:middle;" transform="matrix(1 0 0 1 856.422 322)">Thin</text>
  <text style="stroke:none;fill:black;font-family:-apple-system,&quot;SF Pro Display&quot;,&quot;SF Pro Text&quot;,Helvetica,sans-serif;text-anchor:middle;" transform="matrix(1 0 0 1 1153.13 322)">Light</text>
  <text style="stroke:none;fill:black;font-family:-apple-system,&quot;SF Pro Display&quot;,&quot;SF Pro Text&quot;,Helvetica,sans-serif;text-anchor:middle;" transform="matrix(1 0 0 1 1449.84 322)">Regular</text>
  <text style="stroke:none;fill:black;font-family:-apple-system,&quot;SF Pro Display&quot;,&quot;SF Pro Text&quot;,Helvetica,sans-serif;text-anchor:middle;" transform="matrix(1 0 0 1 1746.56 322)">Medium</text>
  <text style="stroke:none;fill:black;font-family:-apple-system,&quot;SF Pro Display&quot;,&quot;SF Pro Text&quot;,Helvetica,sans-serif;text-anchor:middle;" transform="matrix(1 0 0 1 2043.27 322)">Semibold</text>
  <text style="stroke:none;fill:black;font-family:-apple-system,&quot;SF Pro Display&quot;,&quot;SF Pro Text&quot;,Helvetica,sans-serif;text-anchor:middle;" transform="matrix(1 0 0 1 2339.98 322)">Bold</text>
  <text style="stroke:none;fill:black;font-family:-apple-system,&quot;SF Pro Display&quot;,&quot;SF Pro Text&quot;,Helvetica,sans-serif;text-anchor:middle;" transform="matrix(1 0 0 1 2636.69 322)">Heavy</text>
  <text style="stroke:none;fill:black;font-family:-apple-system,&quot;SF Pro Display&quot;,&quot;SF Pro Text&quot;,Helvetica,sans-serif;text-anchor:middle;" transform="matrix(1 0 0 1 2933.4 322)">Black</text>
  <line id="" style="fill:none;stroke:black;opacity:1;stroke-width:0.5;" x1="263" x2="3036" y1="1903" y2="1903"/>
  <g id="" transform="matrix(1 0 0 1 263 1933)">
   <path d="M 9.24805 0.830078 C 13.5547 0.830078 17.1387 -2.74414 17.1387 -7.05078 C 17.1387 -11.3574 13.5449 -14.9316 9.23828 -14.9316 C 4.94141 -14.9316 1.36719 -11.3574 1.36719 -7.05078 C 1.36719 -2.74414 4.95117 0.830078 9.24805 0.830078 Z M 9.24805 -0.654297 C 5.70312 -0.654297 2.87109 -3.49609 2.87109 -7.05078 C 2.87109 -10.6055 5.69336 -13.4473 9.23828 -13.4473 C 12.793 -13.4473 15.6348 -10.6055 15.6445 -7.05078 C 15.6543 -3.49609 12.8027 -0.654297 9.24805 -0.654297 Z M 9.22852 -3.42773 C 9.69727 -3.42773 9.9707 -3.74023 9.9707 -4.25781 L 9.9707 -6.31836 L 12.1973 -6.31836 C 12.6953 -6.31836 13.0371 -6.57227 13.0371 -7.04102 C 13.0371 -7.51953 12.7148 -7.7832 12.1973 -7.7832 L 9.9707 -7.7832 L 9.9707 -10.0098 C 9.9707 -10.5273 9.69727 -10.8496 9.22852 -10.8496 C 8.75977 -10.8496 8.50586 -10.5078 8.50586 -10.0098 L 8.50586 -7.7832 L 6.29883 -7.7832 C 5.78125 -7.7832 5.44922 -7.51953 5.44922 -7.04102 C 5.44922 -6.57227 5.80078 -6.31836 6.29883 -6.31836 L 8.50586 -6.31836 L 8.50586 -4.25781 C 8.50586 -3.75977 8.75977 -3.42773 9.22852 -3.42773 Z"/>
  </g>
  <g id="" transform="matrix(1 0 0 1 281.506 1933)">
   <path d="M 11.709 2.91016 C 17.1582 2.91016 21.6699 -1.60156 21.6699 -7.05078 C 21.6699 -12.4902 17.1484 -17.0117 11.6992 -17.0117 C 6.25977 -17.0117 1.74805 -12.4902 1.74805 -7.05078 C 1.74805 -1.60156 6.26953 2.91016 11.709 2.91016 Z M 11.709 1.25 C 7.09961 1.25 3.41797 -2.44141 3.41797 -7.05078 C 3.41797 -11.6504 7.08984 -15.3516 11.6992 -15.3516 C 16.3086 -15.3516 20 -11.6504 20.0098 -7.05078 C 20.0195 -2.44141 16.3184 1.25 11.709 1.25 Z M 11.6895 -2.41211 C 12.207 -2.41211 12.5195 -2.77344 12.5195 -3.33984 L 12.5195 -6.23047 L 15.5762 -6.23047 C 16.123 -6.23047 16.5039 -6.51367 16.5039 -7.03125 C 16.5039 -7.55859 16.1426 -7.86133 15.5762 -7.86133 L 12.5195 -7.86133 L 12.5195 -10.9277 C 12.5195 -11.5039 12.207 -11.8555 11.6895 -11.8555 C 11.1719 -11.8555 10.8789 -11.4844 10.8789 -10.9277 L 10.8789 -7.86133 L 7.83203 -7.86133 C 7.26562 -7.86133 6.89453 -7.55859 6.89453 -7.03125 C 6.89453 -6.51367 7.28516 -6.23047 7.83203 -6.23047 L 10.8789 -6.23047 L 10.8789 -3.33984 C 10.8789 -2.79297 11.1719 -2.41211 11.6895 -2.41211 Z"/>
  </g>
  <g id="" transform="matrix(1 0 0 1 304.924 1933)">
   <path d="M 14.9707 5.67383 C 21.9336 5.67383 27.6953 -0.078125 27.6953 -7.04102 C 27.6953 -14.0039 21.9238 -19.7559 14.9609 -19.7559 C 8.00781 -19.7559 2.25586 -14.0039 2.25586 -7.04102 C 2.25586 -0.078125 8.01758 5.67383 14.9707 5.67383 Z M 14.9707 3.85742 C 8.93555 3.85742 4.08203 -1.00586 4.08203 -7.04102 C 4.08203 -13.0762 8.92578 -17.9395 14.9609 -17.9395 C 21.0059 -17.9395 25.8594 -13.0762 25.8691 -7.04102 C 25.8789 -1.00586 21.0156 3.85742 14.9707 3.85742 Z M 14.9512 -1.06445 C 15.5176 -1.06445 15.8691 -1.45508 15.8691 -2.06055 L 15.8691 -6.13281 L 20.1074 -6.13281 C 20.6934 -6.13281 21.1133 -6.46484 21.1133 -7.02148 C 21.1133 -7.59766 20.7227 -7.93945 20.1074 -7.93945 L 15.8691 -7.93945 L 15.8691 -12.1875 C 15.8691 -12.8027 15.5176 -13.1934 14.9512 -13.1934 C 14.3848 -13.1934 14.0625 -12.7832 14.0625 -12.1875 L 14.0625 -7.93945 L 9.83398 -7.93945 C 9.21875 -7.93945 8.80859 -7.59766 8.80859 -7.02148 C 8.80859 -6.46484 9.23828 -6.13281 9.83398 -6.13281 L 14.0625 -6.13281 L 14.0625 -2.06055 C 14.0625 -1.47461 14.3848 -1.06445 14.9512 -1.06445 Z"/>
  </g>
  <text style="stroke:none;fill:black;font-family:-apple-system,&quot;SF Pro Display&quot;,&quot;SF Pro Text&quot;,Helvetica,sans-serif;font-weight:bold;" transform="matrix(1 0 0 1 263 1953)">Design Variations</text>
  <text style="stroke:none;fill:black;font-family:-apple-system,&quot;SF Pro Display&quot;,&quot;SF Pro Text&quot;,Helvetica,sans-serif;" transform="matrix(1 0 0 1 263 1971)">Symbols are supported in up to nine weights and three scales.</text>
  <text style="stroke:none;fill:black;font-family:-apple-system,&quot;SF Pro Display&quot;,&quot;SF Pro Text&quot;,Helvetica,sans-serif;" transform="matrix(1 0 0 1 263 1989)">For optimal layout with text and other symbols, vertically align</text>
  <text style="stroke:none;fill:black;font-family:-apple-system,&quot;SF Pro Display&quot;,&quot;SF Pro Text&quot;,Helvetica,sans-serif;" transform="matrix(1 0 0 1 263 2007)">symbols with the adjacent text.</text>
  <rect height="14" id="" style="fill:#00AEEF;stroke:none;opacity:0.4;" width="3" x="776" y="1919"/>
  <g id="" transform="matrix(1 0 0 1 779 1933)">
   <path d="M 10.5273 0 L 12.373 0 L 7.17773 -14.0918 L 5.43945 -14.0918 L 0.244141 0 L 2.08984 0 L 3.50586 -4.0332 L 9.11133 -4.0332 Z M 6.2793 -11.9531 L 6.33789 -11.9531 L 8.59375 -5.52734 L 4.02344 -5.52734 Z"/>
  </g>
  <rect height="14" id="" style="fill:#00AEEF;stroke:none;opacity:0.4;" width="3" x="791.617" y="1919"/>
  <text style="stroke:none;fill:black;font-family:-apple-system,&quot;SF Pro Display&quot;,&quot;SF Pro Text&quot;,Helvetica,sans-serif;font-weight:bold;" transform="matrix(1 0 0 1 776 1953)">Margins</text>
  <text style="stroke:none;fill:black;font-family:-apple-system,&quot;SF Pro Display&quot;,&quot;SF Pro Text&quot;,Helvetica,sans-serif;" transform="matrix(1 0 0 1 776 1971)">Leading and trailing margins on the left and right side of each symbol</text>
  <text style="stroke:none;fill:black;font-family:-apple-system,&quot;SF Pro Display&quot;,&quot;SF Pro Text&quot;,Helvetica,sans-serif;" transform="matrix(1 0 0 1 776 1989)">can be adjusted by modifying the width of the blue rectangles.</text>
  <text style="stroke:none;fill:black;font-family:-apple-system,&quot;SF Pro Display&quot;,&quot;SF Pro Text&quot;,Helvetica,sans-serif;" transform="matrix(1 0 0 1 776 2007)">Modifications are automatically applied proportionally to all</text>
  <text style="stroke:none;fill:black;font-family:-apple-system,&quot;SF Pro Display&quot;,&quot;SF Pro Text&quot;,Helvetica,sans-serif;" transform="matrix(1 0 0 1 776 2025)">scales and weights.</text>
  <g id="" transform="matrix(1 0 0 1 1289 1933)">
   <path d="M 2.83203 3.11523 L 4.375 4.6582 C 5.22461 5.48828 6.19141 5.41992 7.06055 4.46289 L 17.2754 -6.66016 C 17.7051 -6.36719 18.0957 -6.37695 18.5645 -6.47461 L 19.6094 -6.68945 L 20.3027 -5.99609 L 20.2539 -5.47852 C 20.1855 -4.95117 20.3516 -4.53125 20.8496 -4.0332 L 21.6602 -3.22266 C 22.168 -2.71484 22.8223 -2.68555 23.3008 -3.16406 L 26.5527 -6.41602 C 27.0312 -6.89453 27.0117 -7.54883 26.5039 -8.05664 L 25.6836 -8.87695 C 25.1855 -9.375 24.7754 -9.55078 24.2383 -9.47266 L 23.7109 -9.41406 L 23.0566 -10.0781 L 23.3398 -11.2207 C 23.4863 -11.7871 23.3398 -12.2559 22.7148 -12.8613 L 20.3027 -15.2539 C 16.7578 -18.7793 12.2266 -18.6719 9.11133 -15.5371 C 8.69141 -15.1074 8.64258 -14.5215 8.91602 -14.0918 C 9.15039 -13.7207 9.62891 -13.4961 10.2734 -13.6621 C 11.7871 -14.043 13.3008 -13.9258 14.7852 -12.9199 L 14.1602 -11.3379 C 13.9258 -10.752 13.9453 -10.2734 14.1797 -9.83398 L 3.01758 0.439453 C 2.08008 1.30859 1.97266 2.25586 2.83203 3.11523 Z M 10.6738 -15.1465 C 13.3398 -17.1387 16.6504 -16.8262 19.0527 -14.4141 L 21.6797 -11.8066 C 21.9141 -11.5723 21.9434 -11.3867 21.8848 -11.0938 L 21.5039 -9.53125 L 23.0762 -7.95898 L 24.043 -8.04688 C 24.3262 -8.07617 24.4141 -8.05664 24.6387 -7.83203 L 25.2637 -7.20703 L 22.5098 -4.46289 L 21.8848 -5.07812 C 21.6602 -5.30273 21.6406 -5.40039 21.6699 -5.68359 L 21.7578 -6.64062 L 20.1953 -8.20312 L 18.5742 -7.89062 C 18.291 -7.83203 18.1445 -7.83203 17.9102 -8.07617 L 15.7324 -10.2539 C 15.5078 -10.4883 15.4785 -10.625 15.6055 -10.9473 L 16.5527 -13.2227 C 14.9512 -14.7559 12.8418 -15.6055 10.8008 -14.9512 C 10.7129 -14.9219 10.6445 -14.9414 10.6152 -14.9805 C 10.5859 -15.0293 10.5859 -15.0781 10.6738 -15.1465 Z M 4.10156 2.41211 C 3.61328 1.91406 3.78906 1.61133 4.12109 1.30859 L 15.0781 -8.80859 L 16.3086 -7.57812 L 6.15234 3.34961 C 5.84961 3.68164 5.46875 3.7793 5.06836 3.37891 Z"/>
  </g>
  <text style="stroke:none;fill:black;font-family:-apple-system,&quot;SF Pro Display&quot;,&quot;SF Pro Text&quot;,Helvetica,sans-serif;font-weight:bold;" transform="matrix(1 0 0 1 1289 1953)">Exporting</text>
  <text style="stroke:none;fill:black;font-family:-apple-system,&quot;SF Pro Display&quot;,&quot;SF Pro Text&quot;,Helvetica,sans-serif;" transform="matrix(1 0 0 1 1289 1971)">Symbols should be outlined when exporting to ensure the</text>
  <text style="stroke:none;fill:black;font-family:-apple-system,&quot;SF Pro Display&quot;,&quot;SF Pro Text&quot;,Helvetica,sans-serif;" transform="matrix(1 0 0 1 1289 1989)">design is preserved when submitting to Xcode.</text>
  <text id="template-version" style="stroke:none;fill:black;font-family:-apple-system,&quot;SF Pro Display&quot;,&quot;SF Pro Text&quot;,Helvetica,sans-serif;text-anchor:end;" transform="matrix(1 0 0 1 3036 1933)">Template v.1.0</text>
  <text style="stroke:none;fill:black;font-family:-apple-system,&quot;SF Pro Display&quot;,&quot;SF Pro Text&quot;,Helvetica,sans-serif;text-anchor:end;" transform="matrix(1 0 0 1 3036 1951)">Generated from lock.slash</text>
  <text style="stroke:none;fill:black;font-family:-apple-system,&quot;SF Pro Display&quot;,&quot;SF Pro Text&quot;,Helvetica,sans-serif;text-anchor:end;" transform="matrix(1 0 0 1 3036 1969)">Typeset at 100 points</text>
  <text style="stroke:none;fill:black;font-family:-apple-system,&quot;SF Pro Display&quot;,&quot;SF Pro Text&quot;,Helvetica,sans-serif;" transform="matrix(1 0 0 1 263 726)">Small</text>
  <text style="stroke:none;fill:black;font-family:-apple-system,&quot;SF Pro Display&quot;,&quot;SF Pro Text&quot;,Helvetica,sans-serif;" transform="matrix(1 0 0 1 263 1156)">Medium</text>
  <text style="stroke:none;fill:black;font-family:-apple-system,&quot;SF Pro Display&quot;,&quot;SF Pro Text&quot;,Helvetica,sans-serif;" transform="matrix(1 0 0 1 263 1586)">Large</text>
 </g>
 <g id="Guides">
  <g id="H-reference" style="fill:#27AAE1;stroke:none;" transform="matrix(1 0 0 1 339 696)">
   <path d="M 54.9316 0 L 57.666 0 L 30.5664 -70.459 L 28.0762 -70.459 L 0.976562 0 L 3.66211 0 L 12.9395 -24.4629 L 45.7031 -24.4629 Z M 29.1992 -67.0898 L 29.4434 -67.0898 L 44.8242 -26.709 L 13.8184 -26.709 Z"/>
  </g>
  <line id="Baseline-S" style="fill:none;stroke:#27AAE1;opacity:1;stroke-width:0.577;" x1="263" x2="3036" y1="696" y2="696"/>
  <line id="Capline-S" style="fill:none;stroke:#27AAE1;opacity:1;stroke-width:0.577;" x1="263" x2="3036" y1="625.541" y2="625.541"/>
  <g id="H-reference" style="fill:#27AAE1;stroke:none;" transform="matrix(1 0 0 1 339 1126)">
   <path d="M 54.9316 0 L 57.666 0 L 30.5664 -70.459 L 28.0762 -70.459 L 0.976562 0 L 3.66211 0 L 12.9395 -24.4629 L 45.7031 -24.4629 Z M 29.1992 -67.0898 L 29.4434 -67.0898 L 44.8242 -26.709 L 13.8184 -26.709 Z"/>
  </g>
  <line id="Baseline-M" style="fill:none;stroke:#27AAE1;opacity:1;stroke-width:0.577;" x1="263" x2="3036" y1="1126" y2="1126"/>
  <line id="Capline-M" style="fill:none;stroke:#27AAE1;opacity:1;stroke-width:0.577;" x1="263" x2="3036" y1="1055.54" y2="1055.54"/>
  <g id="H-reference" style="fill:#27AAE1;stroke:none;" transform="matrix(1 0 0 1 339 1556)">
   <path d="M 54.9316 0 L 57.666 0 L 30.5664 -70.459 L 28.0762 -70.459 L 0.976562 0 L 3.66211 0 L 12.9395 -24.4629 L 45.7031 -24.4629 Z M 29.1992 -67.0898 L 29.4434 -67.0898 L 44.8242 -26.709 L 13.8184 -26.709 Z"/>
  </g>
  <line id="Baseline-L" style="fill:none;stroke:#27AAE1;opacity:1;stroke-width:0.577;" x1="263" x2="3036" y1="1556" y2="1556"/>
  <line id="Capline-L" style="fill:none;stroke:#27AAE1;opacity:1;stroke-width:0.577;" x1="263" x2="3036" y1="1485.54" y2="1485.54"/>
  <rect height="119.336" id="left-margin" style="fill:#00AEEF;stroke:none;opacity:0.4;" width="8.31299" x="1396.6" y="1030.79"/>
  <rect height="119.336" id="right-margin" style="fill:#00AEEF;stroke:none;opacity:0.4;" width="6.92741" x="1496.16" y="1030.79"/>
 </g>
 <g id="Symbols">
  <g id="Black-L" transform="matrix(1 0 0 1 2860.45 1556)">
   <path d="M 72.9492 -102.441 C 60.5469 -102.441 48.1445 -96.4355 42.041 -83.9355 L 56.7871 -69.0918 C 57.8125 -78.7598 64.3066 -84.5215 72.9492 -84.5215 C 82.2754 -84.5215 89.209 -77.832 89.209 -66.6016 L 89.209 -52.7832 L 73.1934 -52.7832 L 90.8691 -35.1074 L 97.9004 -35.1074 C 100.049 -35.1074 101.074 -34.0332 101.074 -31.543 L 101.074 -24.8535 L 120.752 -5.17578 L 120.752 -35.791 C 120.752 -46.2402 116.455 -51.6113 107.715 -52.6367 L 107.715 -65.7715 C 107.715 -90.625 90.2832 -102.441 72.9492 -102.441 Z M 131.104 34.2285 C 133.398 36.4258 137.061 36.5234 139.258 34.2285 C 141.406 31.9824 141.504 28.3691 139.258 26.123 L 17.7246 -95.3125 C 15.4785 -97.6074 11.7676 -97.6074 9.52148 -95.3125 C 7.32422 -93.1641 7.32422 -89.4043 9.52148 -87.207 Z M 41.2109 29.8828 L 104.688 29.8828 C 107.617 29.8828 110.205 29.4922 112.305 28.6133 L 95.8984 12.207 L 48.0957 12.207 C 45.9473 12.207 44.8242 11.084 44.8242 8.59375 L 44.8242 -31.543 C 44.8242 -33.9844 45.8496 -35.1074 47.9492 -35.1074 L 48.584 -35.1074 L 32.6172 -51.123 C 27.6367 -48.7305 25.1465 -43.7012 25.1465 -35.791 L 25.1465 12.7441 C 25.1465 24.4629 30.4688 29.8828 41.2109 29.8828 Z"/>
  </g>
  <g id="Heavy-L" transform="matrix(1 0 0 1 2564.79 1556)">
   <path d="M 71.9238 -101.318 C 59.1309 -101.318 46.8262 -94.7754 41.2598 -81.6895 L 54.1992 -68.7012 C 55.2734 -79.3945 62.5 -85.6934 71.9238 -85.6934 C 82.0312 -85.6934 89.7949 -78.418 89.7949 -66.0156 L 89.7949 -51.709 L 71.2402 -51.709 L 86.6699 -36.2793 L 97.8027 -36.2793 C 100.293 -36.2793 101.465 -35.1562 101.465 -32.2266 L 101.465 -21.4844 L 118.555 -4.3457 L 118.555 -35.3516 C 118.555 -45.4102 114.404 -50.6348 105.957 -51.5625 L 105.957 -65.1367 C 105.957 -89.502 89.1602 -101.318 71.9238 -101.318 Z M 128.564 33.0078 C 130.664 35.0586 134.131 35.1074 136.133 33.0078 C 138.184 30.8594 138.281 27.4902 136.133 25.3906 L 17.9199 -92.7734 C 15.8203 -94.8242 12.4023 -94.873 10.2539 -92.7734 C 8.25195 -90.7227 8.25195 -87.207 10.2539 -85.1562 Z M 40.7715 28.7109 L 103.027 28.7109 C 105.957 28.7109 108.447 28.2715 110.547 27.4414 L 96.2891 13.2324 C 95.9473 13.2812 95.5566 13.2812 95.166 13.2812 L 46.0938 13.2812 C 43.6035 13.2812 42.334 12.0605 42.334 9.17969 L 42.334 -32.2266 C 42.334 -35.1074 43.5547 -36.2793 45.8984 -36.2793 L 46.7773 -36.2793 L 32.8125 -50.2441 C 27.7832 -48.0469 25.293 -43.1641 25.293 -35.3516 L 25.293 12.207 C 25.293 23.5352 30.4199 28.7109 40.7715 28.7109 Z"/>
  </g>
  <g id="Bold-L" transform="matrix(1 0 0 1 2269.23 1556)">
   <path d="M 70.752 -100.098 C 57.5684 -100.098 45.3613 -92.8711 40.4297 -79.1992 L 51.2695 -68.2617 C 52.4414 -80.127 60.498 -87.0117 70.752 -87.0117 C 81.7871 -87.0117 90.4297 -79.0527 90.4297 -65.3809 L 90.4297 -50.5371 L 69.0918 -50.5371 L 81.9824 -37.6465 L 97.7051 -37.6465 C 100.586 -37.6465 101.904 -36.4258 101.904 -33.0078 L 101.904 -17.6758 L 116.064 -3.4668 L 116.064 -34.8633 C 116.064 -44.5312 112.061 -49.4629 104.004 -50.3906 L 104.004 -64.4531 C 104.004 -88.2324 87.8418 -100.098 70.752 -100.098 Z M 125.684 31.5918 C 127.637 33.4961 130.811 33.4961 132.666 31.5918 C 134.57 29.6387 134.619 26.5137 132.666 24.5605 L 18.2129 -89.8438 C 16.2598 -91.7969 13.0859 -91.7969 11.1328 -89.8438 C 9.22852 -87.9883 9.22852 -84.7168 11.1328 -82.8613 Z M 40.2832 27.3926 L 101.221 27.3926 C 104.053 27.3926 106.494 26.9531 108.545 26.123 L 96.7773 14.3555 C 96.2402 14.4531 95.752 14.502 95.166 14.502 L 43.8477 14.502 C 41.0156 14.502 39.5996 13.1836 39.5996 9.81445 L 39.5996 -33.0078 C 39.5996 -36.377 40.9668 -37.6465 43.6523 -37.6465 L 44.7266 -37.6465 L 33.1055 -49.2676 C 27.9785 -47.2656 25.4395 -42.5293 25.4395 -34.8633 L 25.4395 11.6211 C 25.4395 22.4609 30.3711 27.3926 40.2832 27.3926 Z"/>
  </g>
  <g id="Semibold-L" transform="matrix(1 0 0 1 1973.32 1556)">
   <path d="M 69.9707 -99.2676 C 56.4941 -99.2676 44.3359 -91.6016 39.7949 -77.4414 L 49.2676 -67.9199 C 50.5371 -80.6152 59.082 -87.9395 69.9707 -87.9395 C 81.5918 -87.9395 90.8691 -79.541 90.8691 -64.8926 L 90.8691 -49.707 L 67.5781 -49.707 L 78.7109 -38.5742 L 97.6562 -38.5742 C 100.732 -38.5742 102.197 -37.3047 102.197 -33.5449 L 102.197 -15.0879 L 114.355 -2.88086 L 114.355 -34.5215 C 114.355 -43.8965 110.498 -48.6816 102.637 -49.5605 L 102.637 -63.9648 C 102.637 -87.4023 86.9629 -99.2676 69.9707 -99.2676 Z M 123.682 30.6152 C 125.537 32.4219 128.516 32.4219 130.322 30.6152 C 132.08 28.7598 132.129 25.8301 130.322 24.0234 L 18.3594 -87.8418 C 16.5527 -89.6484 13.5742 -89.6973 11.7188 -87.8418 C 9.96094 -86.084 9.96094 -83.0566 11.7188 -81.25 Z M 39.9414 26.4648 L 99.9512 26.4648 C 102.734 26.4648 105.127 26.0742 107.129 25.2441 L 97.0703 15.1855 C 96.4844 15.2832 95.8984 15.332 95.166 15.332 L 42.2852 15.332 C 39.209 15.332 37.6953 13.9648 37.6953 10.2539 L 37.6953 -33.5449 C 37.6953 -37.207 39.1602 -38.5742 42.1387 -38.5742 L 43.3105 -38.5742 L 33.3008 -48.6328 C 28.125 -46.7285 25.5371 -42.1387 25.5371 -34.5215 L 25.5371 11.1816 C 25.5371 21.6797 30.3223 26.4648 39.9414 26.4648 Z"/>
  </g>
  <g id="Medium-L" transform="matrix(1 0 0 1 1677.22 1556)">
   <path d="M 69.3359 -98.584 C 55.6641 -98.584 43.5547 -90.625 39.3555 -76.1719 L 47.7539 -67.6758 C 49.0234 -81.0059 58.0078 -88.623 69.3359 -88.623 C 81.4453 -88.623 91.1621 -79.8828 91.1621 -64.5508 L 91.1621 -49.1211 L 66.4551 -49.1211 L 76.2695 -39.3066 L 97.6074 -39.3066 C 100.879 -39.3066 102.441 -37.9395 102.441 -33.9844 L 102.441 -13.0859 L 113.037 -2.39258 L 113.037 -34.2773 C 113.037 -43.457 109.277 -48.0957 101.611 -48.9258 L 101.611 -63.623 C 101.611 -86.7676 86.2793 -98.584 69.3359 -98.584 Z M 122.217 29.8828 C 123.926 31.5918 126.807 31.5918 128.516 29.8828 C 130.225 28.0762 130.225 25.293 128.516 23.584 L 18.5059 -86.377 C 16.7969 -88.0859 13.916 -88.1348 12.1582 -86.377 C 10.498 -84.668 10.498 -81.7383 12.1582 -80.0781 Z M 39.6973 25.7812 L 98.9746 25.7812 C 101.758 25.7812 104.102 25.3418 106.104 24.5605 L 97.3145 15.7715 C 96.6309 15.918 95.9961 15.9668 95.166 15.9668 L 41.1133 15.9668 C 37.8418 15.9668 36.2793 14.5508 36.2793 10.5957 L 36.2793 -33.9844 C 36.2793 -37.8906 37.793 -39.3066 40.9668 -39.3066 L 42.2363 -39.3066 L 33.3984 -48.1445 C 28.2227 -46.3379 25.6348 -41.8457 25.6348 -34.2773 L 25.6348 10.8887 C 25.6348 21.1426 30.2734 25.7812 39.6973 25.7812 Z"/>
  </g>
  <g id="Regular-L" transform="matrix(1 0 0 1 1381.29 1556)">
   <path d="M 68.5547 -97.7539 C 54.5898 -97.7539 42.5293 -89.3555 38.7695 -74.4629 L 45.8008 -67.3828 C 47.1191 -81.4941 56.6406 -89.5508 68.5547 -89.5508 C 81.2988 -89.5508 91.6016 -80.3223 91.6016 -64.1113 L 91.6016 -48.291 L 64.9902 -48.291 L 73.0957 -40.2344 L 97.5586 -40.2344 C 101.074 -40.2344 102.686 -38.8184 102.686 -34.5215 L 102.686 -10.5469 L 111.377 -1.80664 L 111.377 -33.9355 C 111.377 -42.8223 107.715 -47.3145 100.244 -48.0957 L 100.244 -63.1348 C 100.244 -85.8887 85.4004 -97.7539 68.5547 -97.7539 Z M 120.264 28.9062 C 121.875 30.5176 124.561 30.5176 126.123 28.9062 C 127.734 27.2461 127.783 24.6582 126.123 22.998 L 18.7012 -84.375 C 17.0898 -85.9863 14.4043 -86.0352 12.7441 -84.375 C 11.1816 -82.8125 11.1816 -80.0781 12.7441 -78.5156 Z M 39.3555 24.9023 L 97.7539 24.9023 C 100.488 24.9023 102.783 24.4629 104.736 23.6328 L 97.6562 16.5527 C 96.875 16.748 96.0938 16.7969 95.166 16.7969 L 39.5508 16.7969 C 36.084 16.7969 34.375 15.332 34.375 11.0352 L 34.375 -34.5215 C 34.375 -38.7207 36.0352 -40.2344 39.4043 -40.2344 L 40.8203 -40.2344 L 33.5938 -47.4609 C 28.3203 -45.8008 25.7324 -41.4062 25.7324 -33.9355 L 25.7324 10.498 C 25.7324 20.4102 30.2246 24.9023 39.3555 24.9023 Z"/>
  </g>
  <g id="Light-L" transform="matrix(1 0 0 1 1084.8 1556)">
   <path d="M 68.3105 -96.7773 C 53.0273 -96.7773 41.0156 -86.9141 38.3301 -70.8496 L 43.8965 -65.2344 C 44.7266 -80.957 54.7363 -90.4785 68.3105 -90.4785 C 82.373 -90.4785 92.9688 -80.127 92.9688 -63.4277 L 92.9688 -48.3887 L 60.8398 -48.3887 L 67.0898 -42.1387 L 97.998 -42.1387 C 102.295 -42.1387 104.297 -40.5273 104.297 -35.1562 L 104.297 -4.88281 L 110.938 1.80664 L 110.938 -34.7656 C 110.938 -43.5547 107.178 -47.7539 99.5605 -48.2422 L 99.5605 -62.8906 C 99.5605 -84.3262 85.6934 -96.7773 68.3105 -96.7773 Z M 120.312 29.4922 C 121.582 30.7129 123.633 30.7129 124.854 29.4922 C 126.123 28.1738 126.123 26.1719 124.854 24.9023 L 18.2129 -81.6895 C 16.9922 -82.9102 14.9414 -83.0078 13.623 -81.6895 C 12.4023 -80.4688 12.4023 -78.3691 13.623 -77.1484 Z M 38.6719 24.707 L 97.998 24.707 C 100.732 24.707 103.027 24.2676 104.932 23.3887 L 99.6582 18.1152 C 98.7305 18.4082 97.7051 18.5059 96.4844 18.5059 L 38.6719 18.5059 C 34.375 18.5059 32.373 16.8457 32.373 11.4746 L 32.373 -35.1562 C 32.373 -40.4297 34.3262 -42.1387 38.4277 -42.1387 L 39.3555 -42.1387 L 33.7891 -47.7539 C 28.3691 -46.2891 25.7324 -42.1387 25.7324 -34.7656 L 25.7324 11.0352 C 25.7324 20.5078 29.9805 24.707 38.6719 24.707 Z"/>
  </g>
  <g id="Thin-L" transform="matrix(1 0 0 1 788.38 1556)">
   <path d="M 68.0176 -95.459 C 50.9766 -95.459 38.9648 -83.6426 37.6953 -66.1133 L 41.3574 -62.4023 C 41.5527 -80.1758 52.1973 -91.6992 68.0176 -91.6992 C 83.8379 -91.6992 94.7266 -79.8828 94.7266 -62.5488 L 94.7266 -48.4375 L 55.4199 -48.4375 L 59.1309 -44.7266 L 98.584 -44.7266 C 103.955 -44.7266 106.396 -42.7734 106.396 -35.9863 L 106.396 2.53906 L 110.352 6.5918 L 110.352 -35.791 C 110.352 -44.4824 106.494 -48.291 98.6816 -48.4375 L 98.6816 -62.5977 C 98.6816 -82.2754 86.084 -95.459 68.0176 -95.459 Z M 120.361 30.2246 C 121.143 31.0059 122.412 31.0059 123.145 30.2246 C 124.023 29.3945 123.926 28.2227 123.145 27.4414 L 17.627 -78.125 C 16.8945 -78.8086 15.6738 -78.9551 14.7949 -78.125 C 14.0625 -77.3438 14.0625 -76.0742 14.7949 -75.293 Z M 37.7441 24.4629 L 98.3398 24.4629 C 101.074 24.4629 103.32 23.9746 105.176 23.0469 L 102.295 20.166 C 101.172 20.6055 99.8535 20.752 98.291 20.752 L 37.4512 20.752 C 32.1289 20.752 29.6875 18.7988 29.6875 12.0117 L 29.6875 -35.9863 C 29.6875 -42.627 32.0312 -44.7266 37.1094 -44.7266 L 37.3535 -44.7266 L 34.0332 -48.1445 C 28.4668 -46.9727 25.7324 -43.1152 25.7324 -35.791 L 25.7324 11.8164 C 25.7324 20.6543 29.6875 24.4629 37.7441 24.4629 Z"/>
  </g>
  <g id="Ultralight-L" transform="matrix(1 0 0 1 491.84 1556)">
   <path d="M 67.8711 -94.7754 C 49.9023 -94.7754 37.9395 -81.9824 37.4023 -63.6719 L 40.0879 -60.9375 C 39.8926 -79.7852 50.9277 -92.334 67.8711 -92.334 C 84.5703 -92.334 95.6543 -79.7852 95.6543 -62.0605 L 95.6543 -48.4863 L 52.6367 -48.4863 L 55.0293 -46.0449 L 98.877 -46.0449 C 104.785 -46.0449 107.471 -43.9453 107.471 -36.4258 L 107.471 6.39648 L 110.01 9.0332 L 110.01 -36.3281 C 110.01 -44.9707 106.152 -48.584 98.1934 -48.4863 L 98.1934 -62.4512 C 98.1934 -81.25 86.3281 -94.7754 67.8711 -94.7754 Z M 120.41 30.6152 C 120.947 31.1523 121.777 31.1523 122.314 30.6152 C 122.9 30.0293 122.803 29.248 122.314 28.7109 L 17.2852 -76.2695 C 16.8457 -76.709 16.0156 -76.9043 15.4297 -76.2695 C 14.8926 -75.7812 14.8926 -74.9023 15.4297 -74.3652 Z M 37.2559 24.3652 L 98.5352 24.3652 C 101.27 24.3652 103.516 23.877 105.322 22.8516 L 103.662 21.1914 C 102.393 21.7285 100.977 21.9238 99.2188 21.9238 L 36.8652 21.9238 C 30.957 21.9238 28.2715 19.8242 28.2715 12.3047 L 28.2715 -36.4258 C 28.2715 -43.7988 30.8594 -46.0449 36.4258 -46.0449 L 36.3281 -46.0449 L 34.1797 -48.291 C 28.4668 -47.3633 25.7324 -43.6523 25.7324 -36.3281 L 25.7324 12.207 C 25.7324 20.752 29.4922 24.3652 37.2559 24.3652 Z"/>
  </g>
  <g id="Black-M" transform="matrix(1 0 0 1 2875.59 1126)">
   <path d="M 57.8125 -88.2324 C 47.998 -88.2324 38.2812 -83.5938 33.3496 -74.0723 L 46.5332 -60.8887 C 46.9238 -67.7734 51.2695 -72.3145 57.8125 -72.3145 C 64.6484 -72.3145 69.0918 -67.334 69.0918 -59.9609 L 69.0918 -50.293 L 57.1289 -50.293 L 72.8516 -34.5215 L 76.1719 -34.5215 C 77.8809 -34.5215 78.6621 -33.7402 78.6621 -31.7871 L 78.6621 -28.7109 L 96.3379 -11.084 L 96.3379 -36.6699 C 96.3379 -45.2148 92.7734 -49.5605 85.498 -50.1953 L 85.498 -59.6191 C 85.498 -78.8086 71.6797 -88.2324 57.8125 -88.2324 Z M 105.127 20.6055 C 106.885 22.3145 109.717 22.3633 111.426 20.6055 C 113.086 18.8965 113.135 16.0645 111.426 14.3066 L 13.1836 -83.8379 C 11.4258 -85.5957 8.54492 -85.5957 6.78711 -83.8379 C 5.12695 -82.1777 5.12695 -79.248 6.78711 -77.5391 Z M 32.1777 16.6992 L 83.4473 16.6992 C 85.8398 16.6992 87.8906 16.4062 89.5996 15.7227 L 74.8535 0.976562 L 39.502 0.976562 C 37.8418 0.976562 36.9629 0.0976562 36.9629 -1.85547 L 36.9629 -31.7871 C 36.9629 -33.6426 37.7441 -34.5215 39.3066 -34.5215 L 39.3555 -34.5215 L 25.0488 -48.8281 C 21.2402 -46.875 19.2871 -42.8711 19.2871 -36.6699 L 19.2871 2.97852 C 19.2871 12.4023 23.5352 16.6992 32.1777 16.6992 Z"/>
  </g>
  <g id="Heavy-M" transform="matrix(1 0 0 1 2579.95 1126)">
   <path d="M 56.7383 -87.3047 C 46.875 -87.3047 37.2559 -82.4219 32.6172 -72.5586 L 44.1406 -60.9863 C 44.7754 -68.6035 49.8047 -73.3887 56.7383 -73.3887 C 64.1113 -73.3887 69.3848 -68.0176 69.3848 -59.5215 L 69.3848 -49.1211 L 56.1035 -49.1211 L 69.8242 -35.3516 L 75.9766 -35.3516 C 77.832 -35.3516 78.6621 -34.4727 78.6621 -32.373 L 78.6621 -26.5137 L 94.043 -11.1328 L 94.043 -35.9863 C 94.043 -44.1406 90.625 -48.3398 83.7402 -49.0234 L 83.7402 -58.9844 C 83.7402 -78.0273 70.3613 -87.3047 56.7383 -87.3047 Z M 102.295 19.0918 C 103.955 20.7031 106.738 20.752 108.35 19.0918 C 109.961 17.4316 110.059 14.6973 108.35 13.0371 L 13.5254 -81.7383 C 11.8652 -83.3984 9.08203 -83.3984 7.42188 -81.7383 C 5.81055 -80.127 5.81055 -77.2949 7.42188 -75.6836 Z M 31.8848 15.4785 L 81.5918 15.4785 C 83.9355 15.4785 85.9375 15.1855 87.5488 14.502 L 74.7559 1.70898 C 74.5605 1.70898 74.3652 1.70898 74.1211 1.70898 L 37.5488 1.70898 C 35.7422 1.70898 34.8145 0.78125 34.8145 -1.31836 L 34.8145 -32.373 C 34.8145 -34.4238 35.6934 -35.3516 37.4023 -35.3516 L 37.7441 -35.3516 L 25.2441 -47.8027 C 21.3867 -45.9961 19.4336 -42.1387 19.4336 -35.9863 L 19.4336 2.24609 C 19.4336 11.3281 23.5352 15.4785 31.8848 15.4785 Z"/>
  </g>
  <g id="Bold-M" transform="matrix(1 0 0 1 2284.44 1126)">
   <path d="M 55.5176 -86.2793 C 45.6055 -86.2793 36.084 -81.1035 31.8359 -70.8496 L 41.5527 -61.1328 C 42.3828 -69.5801 48.1445 -74.5605 55.5176 -74.5605 C 63.5254 -74.5605 69.6777 -68.7988 69.6777 -58.9844 L 69.6777 -47.8027 L 54.9316 -47.8027 L 66.4551 -36.2793 L 75.7812 -36.2793 C 77.7344 -36.2793 78.7109 -35.3516 78.7109 -33.0566 L 78.7109 -24.0234 L 91.4551 -11.2305 L 91.4551 -35.2051 C 91.4551 -42.9688 88.2812 -46.9727 81.7871 -47.6562 L 81.7871 -58.3008 C 81.7871 -77.0996 68.8477 -86.2793 55.5176 -86.2793 Z M 99.1211 17.3828 C 100.732 18.9453 103.369 18.9941 104.932 17.3828 C 106.494 15.7715 106.543 13.1836 104.932 11.5723 L 13.9648 -79.3457 C 12.3535 -80.957 9.7168 -80.957 8.10547 -79.3457 C 6.54297 -77.7832 6.54297 -75.0977 8.10547 -73.5352 Z M 31.543 14.1113 L 79.541 14.1113 C 81.7871 14.1113 83.6914 13.7695 85.3027 13.1348 L 74.6582 2.49023 C 74.3652 2.53906 74.0723 2.53906 73.7305 2.53906 L 35.3516 2.53906 C 33.3496 2.53906 32.373 1.61133 32.373 -0.732422 L 32.373 -33.0566 C 32.373 -35.3027 33.3496 -36.2793 35.2051 -36.2793 L 35.9375 -36.2793 L 25.4883 -46.6797 C 21.582 -45.0195 19.6289 -41.2598 19.6289 -35.2051 L 19.6289 1.41602 C 19.6289 10.1074 23.584 14.1113 31.543 14.1113 Z"/>
  </g>
  <g id="Semibold-M" transform="matrix(1 0 0 1 1988.55 1126)">
   <path d="M 54.6875 -85.5469 C 44.7266 -85.5469 35.2539 -80.1758 31.2988 -69.6777 L 39.7461 -61.2305 C 40.7715 -70.2637 46.9727 -75.3418 54.6875 -75.3418 C 63.0859 -75.3418 69.873 -69.3359 69.873 -58.6426 L 69.873 -46.9238 L 54.1016 -46.9238 L 64.1113 -36.8652 L 75.6348 -36.8652 C 77.6855 -36.8652 78.7109 -35.9863 78.7109 -33.4961 L 78.7109 -22.3145 L 89.6484 -11.2793 L 89.6484 -34.7168 C 89.6484 -42.1387 86.6211 -45.9961 80.4199 -46.7773 L 80.4199 -57.8125 C 80.4199 -76.4648 67.8223 -85.5469 54.6875 -85.5469 Z M 96.9727 16.2109 C 98.5352 17.7246 101.074 17.7734 102.588 16.2109 C 104.102 14.6484 104.15 12.1582 102.588 10.5957 L 14.2578 -77.7344 C 12.6953 -79.248 10.1074 -79.2969 8.54492 -77.7344 C 7.03125 -76.2207 7.03125 -73.584 8.54492 -72.0703 Z M 31.2988 13.1348 L 78.0762 13.1348 C 80.3223 13.1348 82.1777 12.8418 83.7402 12.207 L 74.6094 3.02734 C 74.2188 3.125 73.877 3.125 73.4375 3.125 L 33.8379 3.125 C 31.7383 3.125 30.7129 2.14844 30.7129 -0.341797 L 30.7129 -33.4961 C 30.7129 -35.9375 31.7383 -36.8652 33.7402 -36.8652 L 34.668 -36.8652 L 25.6348 -45.8984 C 21.6797 -44.3359 19.7266 -40.6738 19.7266 -34.7168 L 19.7266 0.878906 C 19.7266 9.27734 23.584 13.1348 31.2988 13.1348 Z"/>
  </g>
  <g id="Medium-M" transform="matrix(1 0 0 1 1692.48 1126)">
   <path d="M 54.0527 -84.9609 C 44.043 -84.9609 34.6191 -79.4922 30.8594 -68.7988 L 38.3301 -61.2793 C 39.502 -70.752 46.0938 -75.9766 54.0527 -75.9766 C 62.793 -75.9766 70.0195 -69.7266 70.0195 -58.3496 L 70.0195 -46.2402 L 53.5156 -46.2402 L 62.3535 -37.3535 L 75.4883 -37.3535 C 77.6855 -37.3535 78.7109 -36.4258 78.7109 -33.8379 L 78.7109 -20.9961 L 88.3301 -11.3281 L 88.3301 -34.2773 C 88.3301 -41.5039 85.4004 -45.3125 79.4434 -46.0449 L 79.4434 -57.4707 C 79.4434 -76.0254 67.041 -84.9609 54.0527 -84.9609 Z M 95.3125 15.332 C 96.8262 16.8457 99.3164 16.8457 100.781 15.332 C 102.295 13.7695 102.344 11.3281 100.781 9.81445 L 14.4531 -76.4648 C 12.9395 -77.9785 10.4492 -78.0273 8.93555 -76.4648 C 7.42188 -75 7.42188 -72.4609 8.93555 -70.9961 Z M 31.1035 12.4023 L 77.002 12.4023 C 79.1992 12.4023 81.0059 12.1094 82.5684 11.4746 L 74.5605 3.4668 C 74.1699 3.51562 73.7305 3.56445 73.2422 3.56445 L 32.666 3.56445 C 30.5176 3.56445 29.4434 2.53906 29.4434 0 L 29.4434 -33.8379 C 29.4434 -36.377 30.5176 -37.3535 32.6172 -37.3535 L 33.7402 -37.3535 L 25.7812 -45.3125 C 21.7773 -43.7988 19.8242 -40.1855 19.8242 -34.2773 L 19.8242 0.439453 C 19.8242 8.64258 23.584 12.4023 31.1035 12.4023 Z"/>
  </g>
  <g id="Regular-M" transform="matrix(1 0 0 1 1396.6 1126)">
   <path d="M 53.2715 -84.2773 C 43.1641 -84.2773 33.8379 -78.5645 30.3223 -67.6758 L 36.5723 -61.377 C 37.8906 -71.4355 44.9707 -76.7578 53.2715 -76.7578 C 62.3535 -76.7578 70.2148 -70.2637 70.2148 -58.0078 L 70.2148 -45.3125 L 52.6855 -45.3125 L 60.0586 -37.9883 L 75.3418 -37.9883 C 77.6367 -37.9883 78.7109 -37.0117 78.7109 -34.2773 L 78.7109 -19.2871 L 86.5723 -11.377 L 86.5723 -33.7891 C 86.5723 -40.7227 83.7402 -44.3359 78.0762 -45.1172 L 78.0762 -56.9824 C 78.0762 -75.3906 66.0156 -84.2773 53.2715 -84.2773 Z M 93.1641 14.1602 C 94.6289 15.625 97.0703 15.625 98.4863 14.1602 C 99.9023 12.6465 99.9512 10.3027 98.4863 8.83789 L 14.7461 -74.8535 C 13.2812 -76.3184 10.8398 -76.3672 9.375 -74.8535 C 7.95898 -73.4375 7.95898 -70.9473 9.375 -69.5312 Z M 30.9082 11.4746 L 75.5859 11.4746 C 77.7344 11.4746 79.4922 11.1328 81.0547 10.5469 L 74.5117 4.00391 C 74.0234 4.10156 73.5352 4.15039 72.9492 4.15039 L 31.2012 4.15039 C 28.9062 4.15039 27.7832 3.125 27.7832 0.390625 L 27.7832 -34.2773 C 27.7832 -37.0117 28.9062 -37.9883 31.1035 -37.9883 L 32.5195 -37.9883 L 25.9277 -44.5801 C 21.9238 -43.1152 19.9219 -39.5996 19.9219 -33.7891 L 19.9219 -0.146484 C 19.9219 7.8125 23.584 11.4746 30.9082 11.4746 Z"/>
  </g>
  <g id="Light-M" transform="matrix(1 0 0 1 1100.08 1126)">
   <path d="M 53.0273 -83.3496 C 41.7969 -83.3496 32.4707 -76.3672 29.9316 -64.4531 L 34.8633 -59.4238 C 35.7422 -70.8984 43.2617 -77.6367 53.0273 -77.6367 C 63.3301 -77.6367 71.4355 -70.1172 71.4355 -57.373 L 71.4355 -45.3613 L 49.0234 -45.3613 L 54.6387 -39.7461 L 75.7812 -39.7461 C 78.7598 -39.7461 80.127 -38.5742 80.127 -34.8633 L 80.127 -14.2578 L 86.1816 -8.1543 L 86.1816 -34.5215 C 86.1816 -41.3574 83.3008 -44.7266 77.4902 -45.2637 L 77.4902 -56.7871 C 77.4902 -73.9746 66.3086 -83.3496 53.0273 -83.3496 Z M 93.2129 14.6484 C 94.3359 15.8203 96.2402 15.8203 97.3145 14.6484 C 98.4863 13.4766 98.4863 11.6699 97.3145 10.5469 L 14.3066 -72.4609 C 13.2324 -73.5352 11.3281 -73.6328 10.1562 -72.4609 C 9.08203 -71.3379 9.08203 -69.4336 10.1562 -68.3105 Z M 30.2734 11.3281 L 75.8301 11.3281 C 77.9297 11.3281 79.7363 10.9863 81.25 10.3027 L 76.3184 5.41992 C 75.6836 5.56641 75 5.66406 74.1699 5.66406 L 30.3711 5.66406 C 27.3926 5.66406 25.9766 4.44336 25.9766 0.78125 L 25.9766 -34.8633 C 25.9766 -38.4766 27.3438 -39.7461 30.2246 -39.7461 L 31.1523 -39.7461 L 26.123 -44.8242 C 21.9727 -43.6035 19.9219 -40.2832 19.9219 -34.5215 L 19.9219 0.390625 C 19.9219 7.91016 23.3398 11.3281 30.2734 11.3281 Z"/>
  </g>
  <g id="Thin-M" transform="matrix(1 0 0 1 803.639 1126)">
   <path d="M 52.7832 -82.1777 C 39.9414 -82.1777 30.6641 -73.4863 29.3457 -60.2051 L 32.6172 -56.8848 C 32.8613 -70.2148 41.0156 -78.7598 52.7832 -78.7598 C 64.6484 -78.7598 73.0469 -69.873 73.0469 -56.5918 L 73.0469 -45.459 L 44.1406 -45.459 L 47.5586 -42.041 L 76.2695 -42.041 C 80.2246 -42.041 81.9824 -40.5762 81.9824 -35.6445 L 81.9824 -7.56836 L 85.6445 -3.85742 L 85.6445 -35.4492 C 85.6445 -42.2363 82.666 -45.2637 76.6602 -45.4102 L 76.6602 -56.4941 C 76.6602 -72.168 66.6504 -82.1777 52.7832 -82.1777 Z M 93.2617 15.332 C 93.9941 16.0645 95.1172 16.0645 95.8008 15.332 C 96.582 14.5996 96.5332 13.4766 95.8008 12.793 L 13.7695 -69.2383 C 13.1348 -69.873 11.9629 -69.9707 11.2305 -69.2383 C 10.5469 -68.5547 10.5469 -67.3828 11.2305 -66.6992 Z M 29.4434 11.084 L 76.123 11.084 C 78.2715 11.084 80.0293 10.7422 81.4453 10.0098 L 78.7109 7.22656 C 77.8809 7.56836 76.9531 7.66602 75.7812 7.66602 L 29.2969 7.66602 C 25.3906 7.66602 23.584 6.20117 23.584 1.26953 L 23.584 -35.6445 C 23.584 -40.4785 25.3418 -42.041 29.0527 -42.041 L 29.3945 -42.041 L 26.3184 -45.1172 C 22.0215 -44.1895 19.9219 -41.1621 19.9219 -35.4492 L 19.9219 1.07422 C 19.9219 8.05664 23.0469 11.084 29.4434 11.084 Z"/>
  </g>
  <g id="Ultralight-M" transform="matrix(1 0 0 1 507.05 1126)">
   <path d="M 52.6367 -81.5918 C 39.0137 -81.5918 29.7363 -71.9727 29.1016 -58.0078 L 31.4453 -55.6152 C 31.3965 -69.873 39.8438 -79.2969 52.6367 -79.2969 C 65.2832 -79.2969 73.877 -69.7754 73.877 -56.1523 L 73.877 -45.5078 L 41.6016 -45.5078 L 43.8965 -43.2129 L 76.5625 -43.2129 C 80.957 -43.2129 82.959 -41.6504 82.959 -36.0352 L 82.959 -4.15039 L 85.3516 -1.66016 L 85.3516 -35.9375 C 85.3516 -42.627 82.373 -45.5078 76.2695 -45.5078 L 76.2695 -56.3965 C 76.2695 -71.1914 66.8457 -81.5918 52.6367 -81.5918 Z M 93.3105 15.6738 C 93.7988 16.1621 94.5801 16.1621 95.0195 15.6738 C 95.6055 15.1367 95.5078 14.4043 95.0195 13.9648 L 13.5254 -67.5781 C 13.0859 -68.0176 12.3047 -68.1641 11.7676 -67.5781 C 11.2793 -67.1387 11.2793 -66.3574 11.7676 -65.8691 Z M 29.0039 10.9863 L 76.3184 10.9863 C 78.418 10.9863 80.1758 10.5957 81.5918 9.86328 L 79.9316 8.20312 C 79.0039 8.59375 77.9297 8.69141 76.6113 8.69141 L 28.7598 8.69141 C 24.3652 8.69141 22.3145 7.12891 22.3145 1.51367 L 22.3145 -36.0352 C 22.3145 -41.5039 24.2676 -43.2129 28.418 -43.2129 L 28.4668 -43.2129 L 26.416 -45.3125 C 22.0703 -44.5312 19.9219 -41.6016 19.9219 -35.9375 L 19.9219 1.41602 C 19.9219 8.10547 22.9004 10.9863 29.0039 10.9863 Z"/>
  </g>
  <g id="Black-S" transform="matrix(1 0 0 1 2888.19 696)">
   <path d="M 45.2148 -76.709 C 37.5488 -76.709 29.9316 -73.0469 26.0742 -65.5762 L 36.2793 -55.3711 C 36.6211 -60.791 40.0879 -64.3555 45.2148 -64.3555 C 50.5859 -64.3555 54.1504 -60.4492 54.1504 -54.5898 L 54.1504 -46.9238 L 44.7266 -46.9238 L 56.9336 -34.7168 L 59.668 -34.7168 C 60.9863 -34.7168 61.6211 -34.082 61.6211 -32.5684 L 61.6211 -30.0293 L 75.293 -16.3574 L 75.293 -36.2793 C 75.293 -42.9688 72.5098 -46.3379 66.8457 -46.875 L 66.8457 -54.2969 C 66.8457 -69.3359 56.0547 -76.709 45.2148 -76.709 Z M 82.1289 8.39844 C 83.4961 9.7168 85.7422 9.76562 87.0605 8.39844 C 88.3789 7.03125 88.4277 4.83398 87.0605 3.4668 L 10.3516 -73.1934 C 8.98438 -74.5605 6.73828 -74.5605 5.37109 -73.1934 C 4.05273 -71.875 4.05273 -69.5801 5.37109 -68.2617 Z M 25.1953 5.37109 L 65.2344 5.37109 C 67.0898 5.37109 68.7012 5.12695 70.0195 4.58984 L 58.5938 -6.83594 L 30.8105 -6.83594 C 29.4922 -6.83594 28.8086 -7.51953 28.8086 -9.0332 L 28.8086 -32.5684 C 28.8086 -34.0332 29.4434 -34.7168 30.6641 -34.7168 L 30.7129 -34.7168 L 19.6289 -45.8008 C 16.6504 -44.2871 15.1367 -41.1621 15.1367 -36.2793 L 15.1367 -5.37109 C 15.1367 2.00195 18.457 5.37109 25.1953 5.37109 Z"/>
  </g>
  <g id="Heavy-S" transform="matrix(1 0 0 1 2592.28 696)">
   <path d="M 44.4336 -76.0742 C 36.8164 -76.0742 29.2969 -72.4121 25.5859 -64.7949 L 34.668 -55.6641 C 35.2051 -61.5234 39.1602 -65.0879 44.4336 -65.0879 C 50.0488 -65.0879 54.1992 -60.9863 54.1992 -54.2969 L 54.1992 -46.0449 L 44.3359 -46.0449 L 55.2246 -35.1562 L 59.4727 -35.1562 C 60.8398 -35.1562 61.4746 -34.5215 61.4746 -32.959 L 61.4746 -28.9062 L 73.584 -16.748 L 73.584 -35.6934 C 73.584 -42.0898 70.9473 -45.3613 65.5762 -45.9473 L 65.5762 -53.8574 C 65.5762 -68.8477 54.9805 -76.0742 44.4336 -76.0742 Z M 79.9805 7.17773 C 81.2988 8.49609 83.5449 8.54492 84.8633 7.17773 C 86.1816 5.81055 86.2305 3.66211 84.8633 2.29492 L 10.6934 -71.8262 C 9.32617 -73.1934 7.08008 -73.1934 5.76172 -71.8262 C 4.44336 -70.5078 4.44336 -68.2617 5.76172 -66.9434 Z M 25.0488 4.44336 L 63.7695 4.44336 C 65.5762 4.44336 67.1875 4.19922 68.457 3.66211 L 58.3496 -6.44531 C 58.2031 -6.44531 58.0566 -6.44531 57.9102 -6.44531 L 29.3945 -6.44531 C 28.0762 -6.44531 27.3438 -7.12891 27.3438 -8.69141 L 27.3438 -32.959 C 27.3438 -34.4727 28.0273 -35.1562 29.2969 -35.1562 L 29.6387 -35.1562 L 19.7754 -45.0195 C 16.748 -43.5547 15.2344 -40.4785 15.2344 -35.6934 L 15.2344 -6.00586 C 15.2344 1.17188 18.5059 4.44336 25.0488 4.44336 Z"/>
  </g>
  <g id="Bold-S" transform="matrix(1 0 0 1 2296.47 696)">
   <path d="M 43.5059 -75.3906 C 36.0352 -75.3906 28.5645 -71.6797 25 -63.8672 L 32.8613 -56.0059 C 33.6914 -62.3047 38.0859 -65.8691 43.5059 -65.8691 C 49.5117 -65.8691 54.2969 -61.6211 54.2969 -54.0039 L 54.2969 -45.0195 L 43.8965 -45.0195 L 53.2715 -35.6445 L 59.2773 -35.6445 C 60.6445 -35.6445 61.2793 -34.9609 61.2793 -33.3984 L 61.2793 -27.5879 L 71.6309 -17.2363 L 71.6309 -35.0098 C 71.6309 -41.1133 69.1895 -44.2871 64.1602 -44.9219 L 64.1602 -53.3203 C 64.1602 -68.3594 53.8086 -75.3906 43.5059 -75.3906 Z M 77.5391 5.81055 C 78.9062 7.12891 81.1035 7.12891 82.373 5.81055 C 83.6914 4.44336 83.7402 2.29492 82.373 0.976562 L 11.0352 -70.3125 C 9.7168 -71.6797 7.51953 -71.6797 6.15234 -70.3125 C 4.88281 -69.043 4.88281 -66.7969 6.15234 -65.4785 Z M 24.8535 3.41797 L 62.1582 3.41797 C 63.916 3.41797 65.4297 3.17383 66.6992 2.68555 L 58.0566 -6.00586 C 57.8613 -6.00586 57.666 -6.00586 57.4219 -6.00586 L 27.832 -6.00586 C 26.4648 -6.00586 25.7324 -6.68945 25.7324 -8.25195 L 25.7324 -33.3984 C 25.7324 -34.9609 26.416 -35.6445 27.7344 -35.6445 L 28.418 -35.6445 L 19.9219 -44.0918 C 16.8945 -42.7246 15.3809 -39.7461 15.3809 -35.0098 L 15.3809 -6.68945 C 15.3809 0.244141 18.5059 3.41797 24.8535 3.41797 Z"/>
  </g>
  <g id="Semibold-S" transform="matrix(1 0 0 1 2000.37 696)">
   <path d="M 42.9199 -74.9023 C 35.4492 -74.9023 28.0762 -71.1426 24.6094 -63.2812 L 31.6406 -56.25 C 32.6172 -62.8906 37.3535 -66.4062 42.9199 -66.4062 C 49.0723 -66.4062 54.3457 -62.0117 54.3457 -53.7598 L 54.3457 -44.3359 L 43.6035 -44.3359 L 51.9531 -35.9863 L 59.1309 -35.9863 C 60.498 -35.9863 61.1816 -35.3027 61.1816 -33.6914 L 61.1816 -26.709 L 70.3125 -17.5293 L 70.3125 -34.5703 C 70.3125 -40.4297 67.9688 -43.5059 63.1836 -44.1895 L 63.1836 -52.9785 C 63.1836 -67.9688 53.0273 -74.9023 42.9199 -74.9023 Z M 75.8789 4.83398 C 77.1973 6.15234 79.3945 6.20117 80.6641 4.83398 C 81.9824 3.51562 82.0312 1.36719 80.6641 0.0488281 L 11.3281 -69.2871 C 9.96094 -70.6055 7.8125 -70.6055 6.44531 -69.2871 C 5.17578 -67.9688 5.17578 -65.7715 6.44531 -64.4531 Z M 24.707 2.68555 L 61.084 2.68555 C 62.793 2.68555 64.2578 2.44141 65.5273 1.95312 L 57.8613 -5.71289 C 57.6172 -5.66406 57.373 -5.66406 57.1289 -5.66406 L 26.709 -5.66406 C 25.3418 -5.66406 24.6094 -6.39648 24.6094 -8.00781 L 24.6094 -33.6914 C 24.6094 -35.3027 25.3418 -35.9863 26.6602 -35.9863 L 27.5879 -35.9863 L 20.0684 -43.5059 C 16.9922 -42.1875 15.4785 -39.2578 15.4785 -34.5703 L 15.4785 -7.12891 C 15.4785 -0.439453 18.5547 2.68555 24.707 2.68555 Z"/>
  </g>
  <g id="Medium-S" transform="matrix(1 0 0 1 1704.12 696)">
   <path d="M 42.4316 -74.5605 C 35.0586 -74.5605 27.6855 -70.752 24.3164 -62.793 L 30.7129 -56.3965 C 31.7871 -63.2812 36.7676 -66.8457 42.4316 -66.8457 C 48.7793 -66.8457 54.3945 -62.3535 54.3945 -53.6133 L 54.3945 -43.7988 L 43.3594 -43.7988 L 50.9766 -36.2305 L 58.9844 -36.2305 C 60.4004 -36.2305 61.084 -35.5469 61.084 -33.9355 L 61.084 -26.0742 L 69.3359 -17.7734 L 69.3359 -34.2285 C 69.3359 -39.8926 67.041 -42.9199 62.4512 -43.6523 L 62.4512 -52.7344 C 62.4512 -67.7246 52.3926 -74.5605 42.4316 -74.5605 Z M 74.6094 4.15039 C 75.9277 5.46875 78.125 5.46875 79.3945 4.15039 C 80.6641 2.83203 80.7129 0.683594 79.3945 -0.634766 L 11.5234 -68.457 C 10.1562 -69.8242 8.00781 -69.8242 6.68945 -68.457 C 5.37109 -67.1875 5.37109 -64.9902 6.68945 -63.7207 Z M 24.6582 2.14844 L 60.2051 2.14844 C 61.9141 2.14844 63.3789 1.9043 64.5996 1.41602 L 57.7148 -5.46875 C 57.4219 -5.46875 57.1777 -5.41992 56.8848 -5.41992 L 25.8789 -5.41992 C 24.5117 -5.41992 23.7793 -6.15234 23.7793 -7.76367 L 23.7793 -33.9355 C 23.7793 -35.5469 24.4629 -36.2305 25.8789 -36.2305 L 26.9531 -36.2305 L 20.1172 -43.0176 C 17.041 -41.748 15.5273 -38.8672 15.5273 -34.2285 L 15.5273 -7.51953 C 15.5273 -0.927734 18.5547 2.14844 24.6582 2.14844 Z"/>
  </g>
  <g id="Regular-S" transform="matrix(1 0 0 1 1408.02 696)">
   <path d="M 41.7969 -74.0723 C 34.5215 -74.0723 27.1973 -70.2637 23.9746 -62.207 L 29.4922 -56.6406 C 30.7129 -63.8184 36.084 -67.3828 41.7969 -67.3828 C 48.3887 -67.3828 54.4434 -62.7441 54.4434 -53.3691 L 54.4434 -43.1152 L 43.0664 -43.1152 L 49.6582 -36.5723 L 58.8379 -36.5723 C 60.3027 -36.5723 60.9863 -35.8887 60.9863 -34.2285 L 60.9863 -25.1953 L 68.0176 -18.1152 L 68.0176 -33.7402 C 68.0176 -39.209 65.8691 -42.1875 61.4746 -42.9199 L 61.4746 -52.3438 C 61.4746 -67.3828 51.6113 -74.0723 41.7969 -74.0723 Z M 72.9492 3.22266 C 74.2676 4.54102 76.416 4.54102 77.6855 3.22266 C 78.9551 1.9043 79.0039 -0.244141 77.6855 -1.5625 L 11.7676 -67.4316 C 10.4492 -68.75 8.30078 -68.75 6.98242 -67.4316 C 5.71289 -66.1621 5.71289 -63.9648 6.98242 -62.6953 Z M 24.5117 1.41602 L 59.1309 1.41602 C 60.791 1.41602 62.207 1.17188 63.4277 0.732422 L 57.5195 -5.17578 C 57.1777 -5.12695 56.9336 -5.12695 56.5918 -5.12695 L 24.8047 -5.12695 C 23.3887 -5.12695 22.6562 -5.85938 22.6562 -7.51953 L 22.6562 -34.2285 C 22.6562 -35.8887 23.3887 -36.5723 24.8047 -36.5723 L 26.123 -36.5723 L 20.2637 -42.4316 C 17.1387 -41.1621 15.625 -38.3301 15.625 -33.7402 L 15.625 -7.95898 C 15.625 -1.5625 18.5547 1.41602 24.5117 1.41602 Z"/>
  </g>
  <g id="Light-S" transform="matrix(1 0 0 1 1111.48 696)">
   <path d="M 41.6504 -73.291 C 33.252 -73.291 25.9766 -68.3105 23.584 -59.375 L 27.9785 -54.9316 C 28.8086 -63.3789 34.5703 -68.1152 41.6504 -68.1152 C 49.2676 -68.1152 55.5176 -62.5977 55.5176 -52.832 L 55.5176 -43.1641 L 39.7949 -43.1641 L 44.873 -38.0859 L 59.1797 -38.0859 C 61.2793 -38.0859 62.207 -37.2559 62.207 -34.7168 L 62.207 -20.7031 L 67.6758 -15.2344 L 67.6758 -34.375 C 67.6758 -39.7949 65.4297 -42.5293 60.9375 -43.0176 L 60.9375 -52.1973 C 60.9375 -66.1133 51.8555 -73.291 41.6504 -73.291 Z M 72.998 3.66211 C 74.0234 4.6875 75.6836 4.6875 76.709 3.66211 C 77.6855 2.63672 77.7344 0.976562 76.709 -0.0488281 L 11.377 -65.2832 C 10.4004 -66.3086 8.69141 -66.3574 7.66602 -65.2832 C 6.68945 -64.3066 6.68945 -62.5977 7.66602 -61.6211 Z M 23.9746 1.26953 L 59.3262 1.26953 C 60.9863 1.26953 62.4023 1.02539 63.5742 0.537109 L 59.082 -3.90625 C 58.6426 -3.80859 58.2031 -3.80859 57.666 -3.80859 L 24.1211 -3.80859 C 22.0703 -3.80859 21.0449 -4.63867 21.0449 -7.17773 L 21.0449 -34.7168 C 21.0449 -37.207 22.0215 -38.0859 24.0234 -38.0859 L 24.9023 -38.0859 L 20.4102 -42.627 C 17.1875 -41.6016 15.625 -38.916 15.625 -34.375 L 15.625 -7.51953 C 15.625 -1.46484 18.3594 1.26953 23.9746 1.26953 Z"/>
  </g>
  <g id="Thin-S" transform="matrix(1 0 0 1 815.016 696)">
   <path d="M 41.4062 -72.2656 C 31.6406 -72.2656 24.3652 -65.7227 23.0957 -55.6152 L 25.9766 -52.6855 C 26.3184 -62.793 32.5684 -69.0918 41.4062 -69.0918 C 50.3906 -69.0918 56.9336 -62.4512 56.9336 -52.0996 L 56.9336 -43.2129 L 35.498 -43.2129 L 38.5742 -40.1367 L 59.668 -40.1367 C 62.5488 -40.1367 63.8672 -39.0625 63.8672 -35.4004 L 63.8672 -14.7949 L 67.1875 -11.4746 L 67.1875 -35.2051 C 67.1875 -40.5273 64.8926 -42.9688 60.2051 -43.1641 L 60.2051 -51.9531 C 60.2051 -64.502 52.1484 -72.2656 41.4062 -72.2656 Z M 73.0469 4.24805 C 73.6816 4.88281 74.7559 4.88281 75.3418 4.24805 C 76.0254 3.56445 75.9766 2.58789 75.3418 1.95312 L 10.8887 -62.5 C 10.3027 -63.0859 9.27734 -63.1348 8.59375 -62.5 C 7.95898 -61.8652 7.95898 -60.791 8.59375 -60.2051 Z M 23.2422 1.12305 L 59.5703 1.12305 C 61.2305 1.12305 62.6465 0.830078 63.7695 0.292969 L 61.2305 -2.29492 C 60.5957 -2.09961 59.9121 -2.00195 59.082 -2.00195 L 23.1445 -2.00195 C 20.2637 -2.00195 18.9453 -3.07617 18.9453 -6.73828 L 18.9453 -35.4004 C 18.9453 -38.9648 20.2148 -40.1367 22.998 -40.1367 L 23.3398 -40.1367 L 20.5566 -42.9199 C 17.2363 -42.1387 15.625 -39.6973 15.625 -35.2051 L 15.625 -6.93359 C 15.625 -1.36719 18.1152 1.12305 23.2422 1.12305 Z"/>
  </g>
  <g id="Ultralight-S" transform="matrix(1 0 0 1 518.427 696)">
   <path d="M 41.3086 -71.7285 C 30.8105 -71.7285 23.5352 -64.4043 22.8516 -53.6621 L 24.9512 -51.5137 C 25 -62.4512 31.543 -69.6289 41.3086 -69.6289 C 50.9766 -69.6289 57.666 -62.3047 57.666 -51.7578 L 57.666 -43.2617 L 33.252 -43.2617 L 35.3516 -41.1621 L 59.9121 -41.1621 C 63.2324 -41.1621 64.7461 -39.9902 64.7461 -35.7422 L 64.7461 -11.7676 L 66.9434 -9.52148 L 66.9434 -35.6445 C 66.9434 -40.918 64.5996 -43.2129 59.8633 -43.2617 L 59.8633 -51.8555 C 59.8633 -63.6719 52.2949 -71.7285 41.3086 -71.7285 Z M 73.0957 4.58984 C 73.5352 4.98047 74.2188 4.98047 74.6582 4.58984 C 75.1465 4.10156 75.0977 3.41797 74.6582 2.97852 L 10.6445 -61.0352 C 10.2539 -61.4258 9.57031 -61.5234 9.08203 -61.0352 C 8.64258 -60.5957 8.64258 -59.8633 9.08203 -59.4238 Z M 22.8516 0.976562 L 59.7168 0.976562 C 61.377 0.976562 62.7441 0.732422 63.8672 0.146484 L 62.3047 -1.46484 C 61.5723 -1.17188 60.791 -1.07422 59.8145 -1.07422 L 22.6562 -1.07422 C 19.3359 -1.07422 17.8223 -2.29492 17.8223 -6.49414 L 17.8223 -35.7422 C 17.8223 -39.8926 19.2871 -41.1621 22.4609 -41.1621 L 22.5586 -41.1621 L 20.7031 -43.0664 C 17.2852 -42.4316 15.625 -40.0879 15.625 -35.6445 L 15.625 -6.5918 C 15.625 -1.26953 18.0176 0.976562 22.8516 0.976562 Z"/>
  </g>
 </g>
</svg>
